<svg id="Layer_1" data-name="Layer 1" xmlns="http://www.w3.org/2000/svg" viewBox="0 0 496.08 496"><defs><style>.cls-1{fill:#fff;}</style></defs><path class="cls-1" d="M288,280H224a8,8,0,0,0,0,16h64a8,8,0,0,0,0-16Z" transform="translate(-7.92 -8)"/><path class="cls-1" d="M384,40a120.58,120.58,0,0,0-48.86,10.37A127.53,127.53,0,0,0,240,8C173.62,8,118.73,59,112.58,123.84A80,80,0,1,0,88,280h72.34c-.22,2.64-.34,5.31-.34,8a95.61,95.61,0,0,0,48,83.16V392h-8a8,8,0,0,0-8,8v24a8,8,0,0,0,8,8h8v20a28,28,0,0,0,24,27.71V480a24,24,0,0,0,48,0v-.29A28,28,0,0,0,304,452V432h8a8,8,0,0,0,8-8V400a8,8,0,0,0-8-8h-8V371.16A95.61,95.61,0,0,0,352,288c0-2.69-.12-5.36-.34-8H384a120,120,0,0,0,0-240ZM256,488a8,8,0,0,1-8-8h16A8,8,0,0,1,256,488Zm32-36a12,12,0,0,1-12,12H236a12,12,0,0,1-12-12V432h64Zm16-36H208v-8h96Zm-11.64-56.72A8,8,0,0,0,288,366.4V392h-8V312a8,8,0,0,0-16,0v80H248V312a8,8,0,0,0-16,0v80h-8V366.4a8,8,0,0,0-4.36-7.12,80,80,0,1,1,72.72,0ZM443.42,245.36A103.35,103.35,0,0,1,384,264H349A96,96,0,0,0,163,264H88a64,64,0,1,1,28.44-121.34,8,8,0,0,0,10.73-3.59,7.91,7.91,0,0,0,.84-3.54C128.25,74,178.49,24,240,24a111.61,111.61,0,0,1,86.85,41.29,8,8,0,0,0,9.84,2.06A103,103,0,0,1,384,56a104,104,0,0,1,59.42,189.36Z" transform="translate(-7.92 -8)"/></svg>